<svg xmlns="http://www.w3.org/2000/svg" xmlns:xlink="http://www.w3.org/1999/xlink" width="20" height="20" viewBox="0 0 20 20">
    <defs>
        <path id="prefix__a" d="M0 0H19.6V19.6H0z"/>
    </defs>
    <g fill="none" fill-rule="evenodd" transform="translate(0 .4)">
        <mask id="prefix__b" fill="#fff">
            <use xlink:href="#prefix__a"/>
        </mask>
        <g stroke="#696E7E" stroke-linecap="square" stroke-width=".98" mask="url(#prefix__b)">
            <g>
                <path d="M-4.2 13.7L33.133 13.7" transform="translate(-12.6 -10.9) rotate(-45 14.467 13.7)"/>
                <path d="M-0.35 15.392L36.983 15.392" transform="translate(-12.6 -10.9) rotate(-45 18.317 15.392)"/>
                <path d="M2.1 17.842L39.433 17.842" transform="translate(-12.6 -10.9) rotate(-45 20.767 17.842)"/>
                <path d="M4.55 20.292L41.883 20.292" transform="translate(-12.6 -10.9) rotate(-45 23.217 20.292)"/>
                <path d="M6.183 22.742L43.517 22.742" transform="translate(-12.6 -10.9) rotate(-45 24.85 22.742)"/>
                <path d="M15.867 22.742L53.2 22.742" transform="translate(-12.6 -10.9) rotate(-45 34.533 22.742)"/>
                <path d="M8.633 25.192L45.967 25.192" transform="translate(-12.6 -10.9) rotate(-45 27.3 25.192)"/>
            </g>
        </g>
    </g>
</svg>
