<svg xmlns="http://www.w3.org/2000/svg" width="20" height="26" viewBox="0 0 20 26">
    <g fill="#FFF" stroke="#292D34">
        <path stroke-width=".55" d="M9.296 0l.573.7.8 1.01.516.667c1.019 1.334 2.037 2.74 2.989 4.154 2.766 4.113 4.416 7.448 4.416 9.627 0 4.98-4.163 9.003-9.295 9.003S0 21.138 0 16.158c0-2.043 1.423-5.07 3.841-8.778l.576-.867c.76-1.13 1.565-2.253 2.378-3.338l.873-1.146.724-.922L9.296 0zm.813 3.115l-.815-1.051-.258.328-.556.717C7.476 4.419 6.472 5.8 5.536 7.189l-.547.824c-2.296 3.523-3.661 6.409-3.661 8.145 0 4.29 3.575 7.745 7.967 7.745 4.392 0 7.967-3.454 7.967-7.745 0-1.848-1.583-5.048-4.208-8.95-.702-1.045-1.442-2.085-2.192-3.095l-.753-.998z" transform="translate(.73 .38)"/>
        <path stroke-width=".572" d="M9.57 22.488c-3.695 0-6.748-2.841-6.748-6.393 0-.406.375-.761.803-.761.429 0 .804.355.804.76 0 2.69 2.303 4.872 5.141 4.872.429 0 .804.355.804.761s-.375.761-.804.761z" transform="translate(.73 .38)"/>
    </g>
</svg>
