<svg xmlns="http://www.w3.org/2000/svg" width="33" height="26" viewBox="0 0 33 26">
    <path fill="#FFF" stroke="#292D34" stroke-width=".715" d="M32.261 13.342c-.014-.285-.13-.554-.328-.758L24.539 5.09c-.371-.392-.89-.61-1.43-.601-.536-.006-1.051.206-1.43.586l-1.901 1.93-5.291-5.333c-.377-.38-.895-.588-1.43-.572-.539-.016-1.058.197-1.43.586L1.073 12.598c-.215.175-.341.437-.343.715 0 .244.092.479.257.658h.072l10.796 11.025c.34.353.811.55 1.302.544.486 0 .953-.19 1.301-.53l5.377-5.434 2.002 2.031c.345.345.813.54 1.301.543.492.002.963-.2 1.301-.557l7.336-7.48c.258-.183.432-.46.486-.771zM13.443 24.038c-.076.076-.18.118-.286.114-.107.002-.21-.04-.286-.114l-9.796-10.01h1.43l9.481 9.481-.543.53zm1.515-1.53l-8.437-8.48h2.231l7.336 7.336-1.13 1.144zm2.131-2.145l-6.278-6.335h2.274l5.177 5.177-1.173 1.158zm6.335.272c-.073.08-.177.126-.286.126-.109 0-.213-.046-.286-.126l-3.017-3.046-.615.615-4.119-4.176h2.26l6.32 6.35-.257.257zm1.244-1.273l-5.277-5.334h2.26l4.19 4.19-1.173 1.144zm2.13-2.174l-3.117-3.16h2.26l2.03 2.016-1.172 1.144zm2.117-2.159l-.944-1h1.988l-1.044 1zM3.075 12.6l9.696-9.897c.11-.084.247-.125.386-.114.14 0 .274.056.371.157l6.307 6.364 2.931-2.96c.093-.11.229-.172.372-.172.147 0 .288.062.386.172l6.378 6.45H3.075z"/>
</svg>
