<svg xmlns="http://www.w3.org/2000/svg" width="22" height="22" viewBox="0 0 22 22">
    <path fill="#696E7E" stroke="#16191D" stroke-width=".2" d="M20.566 10.064c.394-.4.533-.988.363-1.535-.17-.546-.614-.936-1.158-1.019l-4.843-.734c-.206-.031-.385-.166-.477-.362l-2.165-4.58C12.043 1.32 11.55 1 11 1s-1.043.32-1.286.834l-2.165 4.58c-.092.196-.271.33-.477.362l-4.843.735c-.544.082-.988.472-1.158 1.018-.17.547-.03 1.135.363 1.535l3.504 3.565c.15.152.218.37.182.585l-.827 5.034c-.092.566.126 1.126.57 1.464.445.338 1.024.382 1.511.114l4.331-2.377c.185-.101.405-.101.59 0l4.331 2.377c.211.116.44.173.668.173.296 0 .591-.096.843-.287.445-.338.663-.898.57-1.464l-.827-5.034c-.036-.214.033-.433.182-.585l3.504-3.565zm-4.585 4.232l.809 4.943c.04.249-.052.487-.247.635-.195.148-.439.167-.652.05l-4.238-2.335c-.204-.112-.429-.168-.653-.168-.224 0-.448.056-.653.169l-4.236 2.334c-.215.117-.458.098-.653-.05-.195-.148-.287-.386-.247-.635l.81-4.943c.077-.477-.073-.964-.404-1.302L2.189 9.493c-.173-.177-.232-.425-.157-.666.074-.24.261-.405.5-.442l4.737-.721c.457-.07.853-.37 1.057-.804l2.118-4.498C10.551 2.135 10.76 2 11 2c.241 0 .449.135.556.362l2.118 4.498c.204.434.6.735 1.057.804l4.737.721c.239.037.426.202.5.442.075.24.016.49-.156.666l-3.428 3.5c-.331.339-.482.825-.403 1.303z"/>
</svg>
