<svg xmlns="http://www.w3.org/2000/svg" width="18" height="17" viewBox="0 0 18 17">
    <path fill="#FFF" d="M.51 7.455c.282 0 .509.229.509.514v4.755c0 1.269 1.022 2.305 2.282 2.305h11.176c1.256 0 2.282-1.033 2.282-2.305V8.046c0-.286.226-.515.51-.515.282 0 .509.233.509.515v4.678c0 1.836-1.48 3.333-3.301 3.333H3.3C1.483 16.057 0 14.564 0 12.724V7.969c0-.285.226-.514.51-.514zM8.89 0c.282 0 .507.227.507.51v10.362l2.353-2.375c.2-.2.518-.2.717 0 .2.2.2.522 0 .722l-3.22 3.246c-.097.102-.229.151-.356.151-.128 0-.26-.052-.357-.15L5.31 9.218c-.198-.2-.198-.522 0-.722.2-.2.518-.2.717 0l2.357 2.375V.511c0-.284.225-.511.507-.511z"/>
</svg>
