<svg xmlns="http://www.w3.org/2000/svg" width="20" height="17" viewBox="0 0 20 17">
    <path fill="#1D2025" stroke="#FFF" stroke-width=".5" d="M18.484 15.51h-7.36l7.725-7.747c.201-.202.201-.53 0-.732l-5.862-5.88C12.89 1.054 12.759 1 12.622 1c-.137 0-.268.054-.365.151L1.151 12.291c-.201.202-.201.53 0 .731l3.362 3.372c.096.097.227.151.364.151h13.607c.285 0 .516-.231.516-.517 0-.286-.231-.517-.516-.517zM12.622 2.25l5.133 5.148-6.07 6.089-5.133-5.149 6.07-6.088zM9.665 15.51H5.091l-2.846-2.854 3.577-3.588 5.133 5.148-1.29 1.294z"/>
</svg>
