<svg xmlns="http://www.w3.org/2000/svg" width="24" height="17" viewBox="0 0 24 17">
    <g fill="#FFF">
        <path stroke="#292D34" stroke-width=".55" d="M14.847 0H.883C.395 0 0 .38 0 .848v3.726c0 .468.395.847.883.847s.883-.38.883-.847V1.695h5.216v12.34H5.188c-.488 0-.883.38-.883.847 0 .469.395.848.883.848h5.354c.488 0 .883-.38.883-.848 0-.468-.395-.847-.883-.847H8.748V1.695h5.216v2.879c0 .468.395.847.883.847s.883-.38.883-.847V.848c0-.469-.395-.848-.883-.848z" transform="translate(.73 .71)"/>
        <path d="M22.238 4.29H12.082c-.354 0-.642.276-.642.616v2.71c0 .34.288.617.642.617.355 0 .643-.276.643-.617V5.523h3.793v8.974h-1.305c-.355 0-.642.276-.642.617 0 .34.287.616.642.616h3.894c.355 0 .642-.276.642-.616 0-.34-.287-.617-.642-.617h-1.305V5.523h3.793v2.093c0 .34.288.617.643.617.354 0 .642-.276.642-.617v-2.71c0-.34-.288-.616-.642-.616z" transform="translate(.73 .71)"/>
    </g>
</svg>
