<svg xmlns="http://www.w3.org/2000/svg" width="187" height="187" viewBox="0 0 187 187">
    <g fill="#C3CDDF">
        <path d="M136.382 0H50.62C22.707 0 0 22.707 0 50.62v85.76C0 164.294 22.707 187 50.62 187h85.762c27.91 0 50.618-22.707 50.618-50.62V50.62C187 22.706 164.293 0 136.382 0zm39.655 136.38c0 21.868-17.79 39.657-39.656 39.657H50.619c-21.867 0-39.656-17.79-39.656-39.656v-.481l31.443-28.945c.89-.819 2.285-.819 3.176-.001l24.06 22.088c2.79 2.562 6.552 3.813 10.324 3.438 3.771-.376 7.21-2.351 9.44-5.416l42.46-58.381c.563-.774 1.335-.935 1.744-.962.41-.024 1.196.031 1.855.726l40.572 42.751v25.183zm0-41.107l-32.62-34.372c-2.729-2.876-6.56-4.377-10.522-4.118-3.956.258-7.563 2.245-9.895 5.452l-42.46 58.382c-.538.74-1.274.916-1.665.955-.39.038-1.146.013-1.82-.607L52.997 98.88c-5.055-4.643-12.967-4.636-18.015.011L10.963 121V50.62c0-21.868 17.79-39.657 39.656-39.657h85.763c21.866 0 39.655 17.79 39.655 39.656v44.654z"/>
        <path d="M52.5 31C41.749 31 33 39.748 33 50.5S41.749 70 52.5 70C63.253 70 72 61.252 72 50.5 72.001 39.749 63.253 31 52.5 31zm0 27.902c-4.633 0-8.403-3.769-8.403-8.403 0-4.632 3.77-8.403 8.403-8.403 4.634 0 8.403 3.77 8.403 8.403 0 4.634-3.769 8.403-8.403 8.403z"/>
    </g>
</svg>
