<svg xmlns="http://www.w3.org/2000/svg" xmlns:xlink="http://www.w3.org/1999/xlink" width="13" height="12" viewBox="0 0 13 12">
    <defs>
        <path id="prefix__a" d="M10.325 17.602l2.327 2.328c.114.113.298.113.412 0 .113-.114.113-.298 0-.412l-1.83-1.83h7.443c2.405 0 4.363-1.958 4.363-4.364 0-2.407-1.958-4.364-4.363-4.364H16.64c-.16 0-.29.13-.29.29 0 .161.13.292.29.292h2.037c2.085 0 3.781 1.696 3.781 3.782 0 2.085-1.696 3.781-3.781 3.781h-7.444l1.83-1.83c.114-.113.114-.298 0-.411-.056-.057-.13-.086-.205-.086-.074 0-.149.029-.206.085l-2.327 2.327c-.113.114-.113.298 0 .412z"/>
    </defs>
    <g fill="none" fill-rule="evenodd" transform="translate(-10.12 -9)">
        <use fill="#0E1318" transform="rotate(180 16.64 14.487)" xlink:href="#prefix__a"/>
    </g>
</svg>
