<svg xmlns="http://www.w3.org/2000/svg" width="20" height="20" viewBox="0 0 20 20">
    <path fill="#696E7E" d="M18.27.323c.78 0 1.418.671 1.417 1.499v16.443l-.003.098c-.048.782-.665 1.398-1.414 1.398H1.74l-.092-.003c-.74-.05-1.325-.698-1.325-1.493V1.822l.003-.099C.374.941.99.323 1.74.323zm.532 13.21H6.807v5.339h10.474c.841 0 1.521-.715 1.521-1.592v-3.748zm-13.23-5.98H1.21v9.726c0 .88.678 1.593 1.521 1.592h2.842V7.554zm13.23 0H6.807v4.633h11.995V7.554zm-1.52-6.34H2.731c-.844 0-1.522.714-1.522 1.593v3.4h17.592v-3.4c0-.877-.68-1.593-1.52-1.593z"/>
</svg>
