<svg xmlns="http://www.w3.org/2000/svg" width="29" height="28" viewBox="0 0 29 28">
    <g fill="#FFF">
        <path d="M19.386 7.423H8.319c-.387 0-.7.314-.7.7v3.078c0 .386.313.7.7.7.386 0 .7-.314.7-.7V8.823h4.133v10.192H11.73c-.386 0-.7.313-.7.7 0 .386.314.7.7.7h4.244c.387 0 .7-.314.7-.7 0-.387-.313-.7-.7-.7h-1.422V8.823h4.134v2.378c0 .386.313.7.7.7.386 0 .7-.314.7-.7V8.123c0-.386-.314-.7-.7-.7z" transform="translate(.8)"/>
        <path d="M27.27 6.66c.386 0 .7-.313.7-.7V.7c0-.387-.314-.7-.7-.7h-5.261c-.387 0-.7.313-.7.7v1.93H6.66V.7c0-.387-.313-.7-.7-.7H.7C.313 0 0 .313 0 .7v5.26c0 .387.313.7.7.7h1.93v14.515H.7c-.387 0-.7.313-.7.7v5.26c0 .387.313.7.7.7h5.26c.388 0 .7-.313.7-.7v-1.93h14.648v1.93c0 .387.314.7.7.7h5.261c.387 0 .7-.313.7-.7v-5.26c0-.387-.313-.7-.7-.7h-1.93V6.66h1.93zM22.708 1.4h3.86v3.86h-3.86V1.4zM1.4 1.4h3.86v3.86H1.4V1.4zm3.86 25.036H1.4v-3.861h3.86v3.86zm21.31 0h-3.861v-3.861h3.86v3.86zm-2.63-5.261h-1.932c-.386 0-.7.313-.7.7v1.93H6.661v-1.93c0-.387-.313-.7-.7-.7H4.03V6.66h1.93c.387 0 .7-.314.7-.7V4.03h14.648v1.93c0 .386.313.7.7.7h1.93v14.514z" transform="translate(.8)"/>
    </g>
</svg>
