<svg xmlns="http://www.w3.org/2000/svg" width="100" height="24" viewBox="0 0 100 24">
    <defs>
        <linearGradient id="prefix__a" x1="-44.963%" x2="118.965%" y1="42.064%" y2="54.779%">
            <stop offset="0%" stop-color="#3023AE"/>
            <stop offset="100%" stop-color="#C86DD7"/>
        </linearGradient>
    </defs>
    <path fill="url(#prefix__a)" fill-rule="evenodd" d="M67.623.8c-.749.001-1.454.459-1.742 1.21l-7.35 19.173c-.375.979.101 2.082 1.064 2.464.224.089.453.13.68.13.748 0 1.456-.461 1.743-1.212l1.237-3.226h8.774l1.239 3.226c.285.75.993 1.212 1.743 1.212.224 0 .455-.041.68-.13.962-.382 1.44-1.485 1.062-2.464L69.403 2.01c-.284-.744-.979-1.2-1.72-1.21h-.06zm.019 7.095l2.927 7.639h-5.854l2.927-7.64zM.008 8.83C.003 8.895 0 8.957 0 9.022v12.764c0 1.053.837 1.904 1.871 1.904 1.035 0 1.873-.851 1.873-1.904v-5.905c1.296.846 2.845 1.338 4.51 1.338 4.544 0 8.244-3.675 8.244-8.197 0-4.52-3.7-8.198-8.245-8.198C3.768.824.113 4.398.008 8.831zm3.74.191c0-2.422 2.02-4.391 4.505-4.391 2.482 0 4.502 1.969 4.502 4.391 0 2.423-2.02 4.392-4.502 4.392-2.485 0-4.505-1.969-4.505-4.392zM19.58 2.7c0 1.049.852 1.89 1.884 1.89 1.034 0 1.86-.841 1.86-1.89 0-1.023-.826-1.863-1.86-1.863-1.032 0-1.884.84-1.884 1.863zm71.192.05v14.263c0 3.682 2.945 6.677 6.568 6.677 1.032 0 1.87-.851 1.87-1.904 0-1.05-.838-1.901-1.87-1.901-1.558 0-2.824-1.289-2.824-2.872v-6.328h2.824c1.032 0 1.87-.851 1.87-1.904 0-1.05-.838-1.901-1.87-1.901h-2.824V2.75c0-1.05-.84-1.901-1.873-1.901-1.032 0-1.871.85-1.871 1.901zm-7.795 5.064c-.326-.557-.923-.934-1.61-.934-1.032 0-1.87.85-1.87 1.901v13.082c0 1.05.838 1.902 1.87 1.902 1.034 0 1.874-.852 1.874-1.902v-8.08c0-1.708 1.454-3.098 3.24-3.098 1.031 0 1.872-.851 1.872-1.904 0-1.05-.84-1.901-1.871-1.901-1.278 0-2.475.34-3.505.934zm-37.55.73c-.93.905-1.465 2.123-1.465 3.346 0 4.008 4.252 4.969 5.649 5.285 2.716.613 2.716 1.284 2.716 1.572 0 .143-.08.375-.308.597-.402.393-1.076.59-1.916.552-.742-.034-1.686-.226-3.054-1.41-.788-.682-1.969-.588-2.638.214-.671.798-.578 1.998.21 2.68 1.727 1.498 3.419 2.234 5.32 2.316.118.005.234.008.35.008 1.72 0 3.24-.565 4.315-1.613.93-.905 1.464-2.124 1.464-3.344 0-4.01-4.25-4.97-5.646-5.287-2.718-.613-2.718-1.285-2.718-1.57 0-.145.08-.377.31-.602.403-.39 1.082-.575 1.916-.55.742.034 1.685.225 3.054 1.412.786.68 1.967.586 2.638-.214.669-.799.577-1.999-.208-2.68-1.73-1.5-3.421-2.234-5.325-2.317-.119-.005-.237-.008-.355-.008-1.71 0-3.237.569-4.31 1.613zm-16.637.849c-.01.008-.015.016-.021.023-3.186 3.262-3.186 8.544-.002 11.808.008.007.013.016.023.023 1.608 1.634 3.72 2.45 5.83 2.45 2.113 0 4.223-.816 5.831-2.45.73-.74.73-1.947 0-2.688-.73-.745-1.916-.743-2.645-.002-1.757 1.785-4.615 1.785-6.37 0-.001-.003-.006-.005-.008-.008-1.745-1.784-1.745-4.676 0-6.458.002-.003.007-.005.008-.006 1.755-1.785 4.613-1.785 6.37 0 .364.369.843.557 1.322.557.48 0 .958-.188 1.323-.559.73-.743.73-1.946 0-2.69-1.606-1.633-3.72-2.45-5.83-2.45-2.114 0-4.225.817-5.831 2.45zm-9.212-.513v12.906c0 1.053.84 1.904 1.873 1.904 1.034 0 1.873-.851 1.873-1.904V8.88c0-1.051-.84-1.902-1.873-1.902-1.032 0-1.873.851-1.873 1.902z"/>
</svg>
